<svg xmlns="http://www.w3.org/2000/svg" viewBox="0 0 32 32">
  <rect width="32" height="32" rx="4" fill="#BF0A30"/>
  <rect y="4.5" width="32" height="3" fill="#FFF"/>
  <rect y="9" width="32" height="3" fill="#FFF"/>
  <rect y="13.5" width="32" height="3" fill="#FFF"/>
  <rect y="18" width="32" height="3" fill="#FFF"/>
  <rect y="22.5" width="32" height="3" fill="#FFF"/>
  <rect y="27" width="32" height="3" fill="#FFF"/>
  <rect width="14" height="16" fill="#3C3B6E"/>
  <circle cx="3" cy="2.5" r="0.8" fill="#FFF"/>
  <circle cx="7" cy="2.5" r="0.8" fill="#FFF"/>
  <circle cx="11" cy="2.5" r="0.8" fill="#FFF"/>
  <circle cx="5" cy="5" r="0.8" fill="#FFF"/>
  <circle cx="9" cy="5" r="0.8" fill="#FFF"/>
  <circle cx="3" cy="7.5" r="0.8" fill="#FFF"/>
  <circle cx="7" cy="7.5" r="0.8" fill="#FFF"/>
  <circle cx="11" cy="7.5" r="0.8" fill="#FFF"/>
  <circle cx="5" cy="10" r="0.8" fill="#FFF"/>
  <circle cx="9" cy="10" r="0.8" fill="#FFF"/>
  <circle cx="3" cy="12.5" r="0.8" fill="#FFF"/>
  <circle cx="7" cy="12.5" r="0.8" fill="#FFF"/>
  <circle cx="11" cy="12.5" r="0.8" fill="#FFF"/>
</svg>